<?xml version="1.0" standalone="no"?>
<!DOCTYPE svg PUBLIC "-//W3C//DTD SVG 20010904//EN"
 "http://www.w3.org/TR/2001/REC-SVG-20010904/DTD/svg10.dtd">
<svg version="1.0" xmlns="http://www.w3.org/2000/svg"
 width="512.000000pt" height="512.000000pt" viewBox="0 0 512.000000 512.000000"
 preserveAspectRatio="xMidYMid meet">

<g transform="translate(0.000000,512.000000) scale(0.100000,-0.100000)"
fill="#000000" stroke="none">
<path d="M2380 5109 c-635 -54 -1189 -308 -1625 -744 -199 -199 -355 -416
-479 -665 -168 -338 -240 -618 -271 -1056 -12 -167 24 -495 79 -712 88 -344
266 -700 493 -982 87 -109 264 -286 373 -373 248 -200 565 -369 855 -457 819
-250 1684 -84 2355 450 707 563 1064 1484 924 2380 -69 443 -250 854 -534
1210 -408 512 -1027 856 -1680 934 -168 20 -363 26 -490 15z m506 -1102 c62
-23 113 -58 167 -116 197 -211 132 -549 -131 -678 -74 -37 -79 -38 -186 -38
-104 0 -115 2 -179 32 -176 84 -283 282 -249 463 28 154 136 286 276 337 88
32 214 32 302 0z m-743 -942 c223 -39 422 -148 585 -320 101 -107 171 -217
219 -345 68 -181 68 -186 68 -780 l0 -535 -280 0 -280 0 -5 520 c-5 506 -6
522 -27 578 -64 171 -209 293 -379 319 -38 6 -75 12 -81 14 -10 3 -13 68 -13
284 l0 280 54 0 c29 0 92 -7 139 -15z"/>
</g>
</svg>
